<?xml version="1.0" standalone="no"?>
<!DOCTYPE svg PUBLIC "-//W3C//DTD SVG 1.1//EN" "http://www.w3.org/Graphics/SVG/1.1/DTD/svg11.dtd" >
<svg xmlns="http://www.w3.org/2000/svg" xmlns:xlink="http://www.w3.org/1999/xlink" version="1.1">
<metadata></metadata>
<defs>
<font id="tolstoycregular" horiz-adv-x="964" >
<font-face units-per-em="2048" ascent="1638" descent="-410" />
<missing-glyph horiz-adv-x="440" />
<glyph horiz-adv-x="0" />
<glyph horiz-adv-x="682" />
<glyph unicode=" "  horiz-adv-x="440" />
<glyph unicode="&#x09;" horiz-adv-x="440" />
<glyph unicode="&#xa0;" horiz-adv-x="440" />
<glyph unicode="!" horiz-adv-x="466" d="M123 1636h221l-74 -1443h-88zM160 66q0 27 19.5 45t45.5 18q66 0 66 -63q0 -66 -66 -66q-27 0 -46 19.5t-19 46.5z" />
<glyph unicode="&#x22;" horiz-adv-x="645" d="M123 1636h139l-29 -442h-81zM383 1636h139l-28 -442h-82z" />
<glyph unicode="#" horiz-adv-x="1042" d="M123 332l12 84h156l18 114h-155l14 84h156l125 768h213l-125 -768h149l125 764l109 4l-125 -768h100l-12 -84h-103l-18 -114h102l-14 -84h-102l-54 -334h-108l55 334h-149l-56 -334h-213l53 334h-153zM504 416h151l19 114h-152z" />
<glyph unicode="$" horiz-adv-x="755" d="M84 485q0 29 70 47q25 4 49 10.5t49 10.5v485q-154 172 -154 275q0 129 131 227v180l101 17v-138q20 10 38.5 18.5t34.5 14.5v88l105 17v-92q51 -10 78 -48q-55 -16 -109 -43v-444q41 -53 69.5 -89t43.5 -58q61 -96 61 -170q0 -168 -143 -236v-168l-105 -14v133 q-16 -6 -34.5 -11t-38.5 -10v-98l-101 -14v94q-25 -4 -47 -6t-45 -2q-53 0 -53 24zM297 565q158 43 158 148q0 90 -158 272v-420zM326 1376q0 -72 106 -209v361q-106 -70 -106 -152z" />
<glyph unicode="%" horiz-adv-x="1282" d="M123 1206q0 45 4 86t12 82q23 96 66 168q59 96 139 96q78 0 139 -96q41 -68 64 -168q18 -80 18 -168q0 -96 -20 -178q-23 -96 -66 -160q-59 -92 -135 -92q-80 0 -137 92q-41 66 -64 160q-20 80 -20 178zM209 1288q14 45 72 105q-10 -51 -11 -201q0 -150 11 -201 q-25 25 -66 88q37 -211 129 -211q72 0 109 142q27 94 26 196q0 102 -26 195q-37 141 -109 141q-108 0 -135 -254zM424 -2l324 1649h106l-324 -1649h-106zM717 418q0 88 18 168q23 100 64 168q59 96 139 96t139 -98q45 -74 66 -166q8 -41 12 -82t4 -86q0 -98 -20 -178 q-10 -47 -26.5 -87t-39.5 -75q-59 -90 -135 -90t-135 90q-43 63 -66 162q-20 80 -20 178zM805 504q14 45 69 102q-4 -23 -7 -72t-3 -126q0 -150 10 -201q-23 27 -63 88q33 -211 127 -211q72 0 109 141q27 94 26 197q0 102 -26 194q-37 141 -109 142q-106 0 -133 -254z" />
<glyph unicode="&#x26;" horiz-adv-x="1099" d="M123 1016q0 227 219 330q123 57 236 57q127 0 227 -76q-18 -20 -33.5 -34.5t-28.5 -24.5q-63 57 -174 57q-117 0 -180 -74v-469q0 -53 68 -53h108v-84h-106q-70 0 -70 -47v-434q45 -82 227 -82q154 0 271 123v129q-96 -4 -225 -58v82q143 66 323 66q63 0 105 -6v-84h-101 v-144q-113 -178 -334 -192q-10 -2 -20 -2h-21q-197 0 -331 104q-147 113 -148 306q0 203 158 282q-170 121 -170 328z" />
<glyph unicode="'" horiz-adv-x="385" d="M123 1636h139l-29 -442h-81z" />
<glyph unicode="(" horiz-adv-x="845" d="M123 774q0 328 145 602q166 309 455 400v-90q-90 -29 -188 -117t-132 -172q-12 -29 -12 -35v-1151q27 -68 119 -143q80 -70 160 -101v-88q-113 37 -213 123q-334 272 -334 772z" />
<glyph unicode=")" horiz-adv-x="845" d="M123 -51q90 29 186 114q100 90 133 175q12 27 13 34v1151q-27 68 -119 144q-80 70 -160 100v88q113 -37 213 -123q334 -272 334 -772q0 -328 -145 -602q-166 -311 -455 -399v90z" />
<glyph unicode="*" horiz-adv-x="589" d="M123 1442v45l76 16l-41 64l30 32l70 -45l18 86h46l16 -79l68 43l30 -31l-45 -70l76 -16v-45l-80 -17l45 -69l-33 -31l-63 43l-14 -72h-46l-16 76l-65 -43l-33 33l43 63z" />
<glyph unicode="+" horiz-adv-x="710" d="M123 334v84h180v184h100v-184h185v-84h-185v-180h-100v180h-180z" />
<glyph unicode="," horiz-adv-x="485" d="M123 16v54v90v51q2 14 18 14q47 0 88 -26q131 -76 131 -234q0 -90 -45 -160q-51 -74 -135 -96v64q23 6 53 37q31 27 31 49v141q-27 -2 -49 -2h-41q-29 0 -40 3t-11 15z" />
<glyph unicode="-" horiz-adv-x="647" d="M123 334v84h401v-84h-401z" />
<glyph unicode="." horiz-adv-x="419" d="M123 86q0 35 25.5 60.5t60.5 25.5q37 0 62.5 -24.5t25.5 -61.5t-24.5 -62.5t-61.5 -25.5t-62.5 25.5t-25.5 62.5z" />
<glyph unicode="/" horiz-adv-x="765" d="M123 -188l409 1970h111l-410 -1970h-110z" />
<glyph unicode="0" horiz-adv-x="956" d="M115 825q0 846 362 846q363 0 363 -846q0 -338 -45 -516q-82 -328 -318 -327q-238 0 -317 327q-45 172 -45 516zM223 971q82 143 144 186q-33 -80 -33 -364q0 -285 33 -365q-18 14 -50 53t-79 103q0 -156 55 -316q72 -201 176 -200q250 0 250 755q0 246 -37 434 q-61 322 -213 322q-100 0 -172 -213q-23 -66 -38.5 -139.5t-25.5 -153.5q0 -10 -1 -22.5t-3 -28.5q-2 -39 -6 -51z" />
<glyph unicode="1" horiz-adv-x="583" d="M123 1511v84q78 45 309 45v-1640h-215v1538q-35 2 -94 -27z" />
<glyph unicode="2" horiz-adv-x="763" d="M123 0v416q0 141 84 321q2 0 160 287q84 156 84 238q0 117 -91 202q-90 88 -208 97v75q190 0 340 -155q149 -151 149 -344q0 -127 -139 -383t-140 -392v-278h265v-84h-504z" />
<glyph unicode="3" horiz-adv-x="837" d="M113 55q4 12 11 34t17 50q70 -59 170 -59q70 0 133 51v881q-72 59 -129 59q-10 0 -23 1t-30 3v80q23 2 39 2h29q61 0 114 51v318q-53 35 -114 35q-82 0 -135 -52q-4 0 -56 64q74 74 191 74q115 0 196 -82q84 -84 84 -199q0 -80 -44 -149.5t-120 -104.5q141 -57 213 -229 q55 -139 56 -318q0 -236 -82 -385q-102 -188 -316 -188q-141 0 -204 63z" />
<glyph unicode="4" horiz-adv-x="884" d="M57 395q0 6 3 20.5t8 37.5q23 115 88 280.5t172 388.5q250 514 389 514h45v-1636h-215v1337q-100 -109 -230 -432q-115 -287 -159 -487h317v-84l-342 -2q-76 0 -76 63z" />
<glyph unicode="5" horiz-adv-x="788" d="M123 -4v86q72 16 120 31.5t70 25.5q109 53 121 142q2 6 2 34q0 145 -82 308q-39 70 -75.5 139t-73.5 139q-82 166 -82 322v415h504v-84h-267q-2 -41 -2 -80.5v-80.5v-68t2 -49q4 -72 45 -176.5t117 -245.5q143 -266 144 -412q0 -137 -99 -254q-113 -135 -444 -192z" />
<glyph unicode="6" horiz-adv-x="915" d="M123 375v409q0 301 153 539q162 252 443 330v-82q-379 -129 -404 -592q80 139 138 178q-29 -68 -37 -199q55 18 114 19q262 0 263 -264v-67t2 -93v-162v-48t-2 -62q-10 -293 -297 -293q-178 0 -275.5 103.5t-97.5 283.5zM383 127q47 -39 135 -39q35 0 65.5 15.5t54.5 40 t38 57t14 67.5v461q0 70 -43 111t-115 41q-150 0 -149 -174v-580z" />
<glyph unicode="7" horiz-adv-x="917" d="M123 -4q12 172 49 378t100 447q37 141 96.5 322.5t145.5 410.5h-383l31 80h610q-176 -416 -289 -843q-63 -240 -102 -437.5t-53 -357.5q-8 -2 -34 -2h-67h-52t-52 2z" />
<glyph unicode="8" horiz-adv-x="1034" d="M121 565q0 178 55 318q72 172 213 229q-74 35 -119 104.5t-45 149.5q0 117 82 199t199 82t199 -82t81 -199q0 -168 -149 -248q278 -94 278 -553q0 -225 -84 -381q-104 -193 -313 -192q-213 0 -315 188q-82 150 -82 385zM242 750q80 143 141 186q-33 -80 -33 -365t33 -364 q-23 16 -55.5 55t-79.5 103q20 -125 88 -201q74 -84 188 -84q166 0 246 172q59 135 59 317t-63 316q-82 174 -246 174q-109 0 -194 -101q-84 -102 -84 -208zM326 1434l67 71q-20 -74 -20 -141q0 -66 12 -129q-12 14 -47 53q0 -18 13.5 -38.5t37 -37t53 -27.5t64.5 -11 q41 0 76.5 15t61.5 40.5t41 60.5t15 76q0 82 -56 138.5t-138 56.5q-68 0 -125 -43q-55 -41 -55 -84z" />
<glyph unicode="9" horiz-adv-x="915" d="M121 1087v162v48t2 63q10 293 297 293q178 0 275.5 -103.5t97.5 -283.5v-410q0 -303 -154 -539q-162 -252 -442 -329v82q378 129 403 592q-80 -139 -137 -179q29 68 37 199q-55 -18 -115 -18q-262 0 -262 264v66.5t-2 92.5zM225 911q0 -70 43 -110.5t115 -40.5 q150 0 149 174v579q-47 39 -135 39q-35 0 -65.5 -15t-54 -39.5t-38 -57.5t-14.5 -68v-461z" />
<glyph unicode=":" horiz-adv-x="417" d="M123 379q0 37 24.5 62.5t61.5 25.5q35 0 60.5 -25.5t25.5 -60.5q0 -37 -24.5 -62.5t-61.5 -25.5t-61.5 25.5t-24.5 62.5v-2zM123 719q0 37 24.5 62.5t61.5 25.5q35 0 60.5 -25.5t25.5 -60.5q0 -37 -24.5 -62.5t-61.5 -25.5t-61.5 25.5t-24.5 62.5v-2z" />
<glyph unicode=";" horiz-adv-x="446" d="M123 719q0 37 24.5 62.5t61.5 25.5q35 0 60.5 -25.5t25.5 -60.5q0 -37 -24.5 -62.5t-61.5 -25.5t-61.5 25.5t-24.5 62.5v-2zM141 358v68q0 49 15 49q68 0 120 -61q48 -59 48 -129q0 -66 -35 -125q-39 -61 -103 -78v49q8 2 19.5 10.5t21 17.5t16.5 19t7 17v108h-94 q-14 0 -15 55z" />
<glyph unicode="&#x3c;" horiz-adv-x="673" d="M123 377q0 4 18 14q76 33 178.5 77t231.5 103v-94l-236 -98l236 -100v-93l-412 179q-16 10 -16 12z" />
<glyph unicode="=" horiz-adv-x="671" d="M123 236v98h428v-98h-428zM123 420v94h428v-94h-428z" />
<glyph unicode="&#x3e;" horiz-adv-x="673" d="M123 184v95l235 98l-235 100v92l412 -180q16 -6 16 -12q0 -4 -19 -12q-76 -33 -178 -78t-231 -103z" />
<glyph unicode="?" horiz-adv-x="720" d="M123 1559v79q199 0 336 -137q139 -139 139 -334q0 -156 -156 -428q-164 -287 -180 -424q-2 -20 -4 -48.5t-6 -67.5h-70q-35 86 -35 225q0 143 78 328q35 78 72 153.5t72 151.5q45 102 45 198q0 135 -78 214t-213 90zM158 66q0 27 19.5 45t45.5 18q66 0 66 -63 q0 -66 -66 -66q-27 0 -46 19.5t-19 46.5z" />
<glyph unicode="@" horiz-adv-x="1402" d="M123 649q0 281 162 500q174 246 444 246q266 0 418 -213q133 -188 133 -465q0 -446 -383 -529l-49 142h-270q-8 -25 -15.5 -40.5t-17.5 -27.5t-24.5 -21.5t-37.5 -21.5q-14 -8 -22 -8q-18 0 -19 18q0 2 23 37q20 33 24 66h-77v88h104l236 770l299 -840q139 78 139 367 q0 252 -105 411q-123 184 -362 185q-176 0 -307 -137q-117 -124 -168 -302q76 119 123 152q-33 -80 -33 -364q0 -285 33 -365q-10 8 -42 47t-85 111q49 -186 180 -291t321 -105q160 0 297.5 73t223.5 208v-102q-27 -39 -74 -84q-188 -172 -444 -172q-268 0 -451 200 q-174 193 -174 467zM600 418h221q-2 4 -10 30.5t-25 77.5l-79 238z" />
<glyph unicode="A" horiz-adv-x="1167" d="M82 334v84h151l318 1274l534 -1674q-43 -26 -180 -26h-10h-27l-114 342h-432q-18 -70 -32 -114t-22 -64q-41 -109 -106 -144q-23 -12 -39 -12q-29 0 -29 29q0 8 31 51t37 63q4 10 16 57.5t35 133.5h-131zM342 418h387l-213 708z" />
<glyph unicode="B" horiz-adv-x="1144" d="M51 1036v84h150v215q0 154 82 239t235 85q156 0 252 -80q104 -86 104 -238q0 -186 -212 -264q172 -25 284 -168q117 -145 117 -315q0 -309 -215 -465q-188 -137 -508 -137q-70 0 -139 6v1038h-150zM418 109h28q102 0 201 38q305 127 305 453q0 213 -166 334 q-142 102 -360 102h-8v-927zM418 1120h31q121 0 210 43q119 57 119 178q0 211 -227 211q-133 0 -133 -172v-260z" />
<glyph unicode="C" horiz-adv-x="784" d="M82 774q0 301 156 543q164 258 444 336v-86q-195 -53 -326 -226q-120 -157 -163 -366q80 139 141 182q-33 -80 -33 -364q0 -285 33 -365q-61 45 -144 188q41 -186 152 -323q119 -150 287 -211v-94q-250 76 -402 301q-145 219 -145 485z" />
<glyph unicode="D" horiz-adv-x="1097" d="M51 -2v84h103v1253q0 72 21.5 131.5t62.5 102.5t97 66.5t128 23.5q113 0 223 -74q166 -113 254 -340q76 -191 76 -422q0 -569 -420 -762q-135 -63 -266 -63h-279zM371 82q125 12 229 82q305 190 305 651q0 193 -57 359q-66 195 -189 305q-83 73 -155 73h-2 q-131 0 -131 -174v-1296z" />
<glyph unicode="E" horiz-adv-x="800" d="M82 334v84h102q-71 172 -71 351q0 306 155 548q168 260 447 336v-86q-61 -14 -140 -68q-293 -188 -337 -532q82 160 129 194q-25 -133 -25 -416v-329l313 2v-84h-309q23 -61 135 -150q106 -80 178 -102v-94q-117 35 -243 137q-115 98 -187 209h-147z" />
<glyph unicode="F" horiz-adv-x="880" d="M51 334v84h152v354q0 299 153 545q170 268 443 336v-64v-20q-186 -49 -326 -232q-131 -173 -149 -372q82 150 145 190q-33 -78 -33 -364v-373h305v-84h-305v-316q-64 -30 -162 -30h-6q-33 0 -65 6v340h-152z" />
<glyph unicode="G" horiz-adv-x="1288" d="M82 819q0 178 49 342q61 205 191 344q150 162 346 162q158 0 297 -115q-51 -70 -64 -69q1 0 1 1q0 4 -75 46q-84 47 -149 47q-221 0 -356 -215q-51 -86 -84.5 -189.5t-47.5 -228.5q16 29 35 57.5t37 57.5q47 70 88 98q-33 -78 -33 -364q0 -287 33 -365q-63 45 -147 193 q41 -219 145 -365q133 -188 324 -188q172 0 286 145v344q0 150 -79 199q41 10 77 10q6 0 11 -2q4 -2 11 -4t17 -4q121 -35 156 -138q10 -33 18.5 -65.5t16.5 -65.5v-65q-72 -188 -195 -305q-143 -143 -323 -144q-193 0 -346 164q-129 137 -191 344q-49 162 -49 338z" />
<glyph unicode="H" d="M123 -6v1624q76 31 147 31q16 0 37 -1t43 -3v-766h383v739q42 29 101 29h8v-1649h-109v797h-383v-777q-57 -30 -151 -30h-6q-37 0 -70 6z" />
<glyph unicode="I" horiz-adv-x="473" d="M123 -8v422v782v422q76 31 149 31q16 0 36 -1t42 -3v-1627q-76 -30 -143 -30h-4q-16 0 -37 1t-43 3z" />
<glyph unicode="J" horiz-adv-x="573" d="M-102 -211q47 14 92 36.5t86 51.5q92 61 137 143q18 33 18 43v1573h220v-1085q0 -686 -553 -848v86z" />
<glyph unicode="K" d="M125 -4v1640h215v-762q213 274 254 349q106 186 106 413h93q0 -328 -226 -602q80 -68 115 -135q27 -55 49 -170l131 -731h-100l-131 729q-8 45 -18.5 78t-20.5 53t-30.5 46t-53.5 57l-170 -222v-723q-63 -24 -145 -24h-7q-10 0 -25.5 1t-35.5 3z" />
<glyph unicode="L" horiz-adv-x="757" d="M123 -2v1620q76 31 149 31q16 0 36 -1t44 -3v-1563h336q8 -16 8 -41q0 -27 -8 -43h-565z" />
<glyph unicode="M" horiz-adv-x="972" d="M123 -6v1644h47q319 0 385 -151q70 149 257 149h3h35v-1638h-105v1532q-72 -12 -119.5 -72.5t-60.5 -136.5h-22q-31 184 -203 209v-1514q-49 -26 -140 -26h-7q-16 0 -35 1t-35 3z" />
<glyph unicode="N" horiz-adv-x="962" d="M123 -6v82v1472l119 103q57 -2 182 -201q39 -63 73.5 -126.5t67.5 -127.5q53 -109 88 -203q68 -176 80 -288v921q49 23 99 23h8v-1651h-107v43v25q0 463 -215 960q-94 221 -178 311v-1321q-49 -26 -140 -26h-7q-16 0 -35 1t-35 3z" />
<glyph unicode="O" horiz-adv-x="1351" d="M82 819q0 166 47 326q61 209 195 348q158 164 352 164q195 0 352 -164q129 -135 195 -348q47 -160 47 -326q0 -178 -53 -344q-66 -203 -197 -334q-153 -155 -342 -155h-2q-195 0 -344 155q-131 131 -197 334q-53 166 -53 344zM190 969q78 141 144 188q-33 -80 -33 -364 q0 -285 33 -365q-49 33 -123 154q53 -207 156 -338q129 -166 313 -166q162 0 287 143q104 121 155 291q43 143 43 307t-43 311q-51 170 -155 291q-127 141 -287 142q-213 0 -348 -199q-109 -159 -142 -395z" />
<glyph unicode="P" horiz-adv-x="1144" d="M51 334v84h150v917q0 72 21.5 131.5t62.5 102.5t97 66.5t128 23.5q258 0 412 -195q141 -178 141 -442q0 -217 -105.5 -383t-302.5 -252q-125 -53 -237 -53v-318q-49 -26 -141 -26h-7q-16 0 -34.5 1t-34.5 3v340h-150zM418 418q94 0 194 51q154 76 248 225q92 150 92 322 q0 387 -254 504q-66 32 -140 32h-5q-135 0 -135 -174v-960z" />
<glyph unicode="Q" horiz-adv-x="1335" d="M82 819q0 182 53 355q66 205 191 335q152 158 342 158q188 0 340 -158q127 -129 192 -335q53 -173 53 -355q0 -410 -223 -663q31 -23 62.5 -40.5t64.5 -31.5v-94q-53 16 -101 41.5t-91 58.5q-139 -117 -297 -117q-190 0 -340 160q-127 129 -193 334q-53 172 -53 352z M182 961q82 150 148 196q-33 -80 -33 -364q0 -285 33 -365q-53 33 -129 166q47 -211 153 -348q131 -178 318 -178q119 0 223 86q-23 25 -44.5 51t-37.5 55q33 37 57 74q29 -61 86 -119q195 229 195 604q0 162 -39 303q-53 182 -151 301q-125 150 -289 150q-211 0 -348 -209 q-111 -170 -142 -403z" />
<glyph unicode="R" horiz-adv-x="1144" d="M51 334v84h150v917q0 72 21.5 131.5t62.5 102.5t97 66.5t128 23.5q258 0 412 -195q141 -178 141 -442q0 -96 -24.5 -185t-70.5 -167t-111.5 -141.5t-149.5 -106.5q10 -96 69 -193q45 -74 137 -147q10 -6 23.5 -16.5t32.5 -24.5q-8 -18 -51 -33q-35 -12 -60 -12 q-45 35 -84 78t-74 94q-78 117 -90 211q-53 -20 -101 -31.5t-91 -13.5v-318q-49 -26 -141 -26h-7q-16 0 -34.5 1t-34.5 3v340h-150zM418 418q47 4 96 18.5t100 40.5q78 39 140.5 96.5t106.5 127t67.5 149.5t23.5 166q0 387 -254 504q-66 32 -140 32h-5q-135 0 -135 -174 v-960z" />
<glyph unicode="S" horiz-adv-x="772" d="M102 27q0 14 9 22q10 10 108 41q100 31 152 76q75 67 75 179t-81 267q-39 70 -77 139.5t-77 139.5q-84 168 -84 291q0 197 133 342q119 131 209 131q59 0 90 -70q-82 -31 -139 -119q-55 -86 -55 -174q0 -135 151 -422q154 -283 154 -428q0 -137 -99 -254 q-115 -139 -360 -194q-23 -6 -43 -6q-66 0 -66 39z" />
<glyph unicode="T" horiz-adv-x="915" d="M82 1552v84h752v-84h-256v-1534q-66 -28 -158 -28h-6q-37 0 -74 6v1556h-258z" />
<glyph unicode="U" horiz-adv-x="960" d="M123 293v1325q76 31 147 31q16 0 37 -1t43 -3v-1375q0 -82 54.5 -133t136.5 -51t135 51t53 133v1348q44 29 102 29h7v-1346q0 -74 -27 -132t-73 -100t-108.5 -63.5t-135.5 -21.5q-147 0 -254 79q-117 88 -117 230z" />
<glyph unicode="V" horiz-adv-x="993" d="M41 1622q45 27 170 27h45l348 -1117l191 773q8 31 8 100q0 72 -25 137q-31 80 -90 96q37 16 76 17q29 0 55 -17q92 -58 92 -208q0 -100 -30 -238q-35 -127 -99 -381l-213 -829l-460 1427q-12 35 -29 88t-39 125z" />
<glyph unicode="W" horiz-adv-x="1167" d="M41 1636h207l268 -1097l80 315q-2 4 -5 22.5t-11 51.5l-156 708h115l239 -1097l154 698q20 90 20 168q0 70 -24 135q-35 84 -90 98q37 16 75 17q23 0 56 -17q96 -49 96 -231q0 -72 -23 -190q-2 -4 -23.5 -107.5t-64.5 -306.5l-170 -817l-143 647l-174 -647l-371 1437 q-10 35 -24.5 88.5t-30.5 124.5z" />
<glyph unicode="X" horiz-adv-x="925" d="M102 1636h215q43 -209 191 -690q41 115 81 267.5t81 345.5q2 14 6 32.5t10 44.5q6 2 29 2h35.5t42.5 -2q-59 -270 -119 -482t-119 -372q70 -221 136.5 -415.5t131.5 -368.5h-215q-41 104 -84 225t-90 262q-59 -152 -106 -272.5t-86 -214.5h-129q63 135 130.5 295 t143.5 350q-121 352 -160 492q-82 274 -125 501z" />
<glyph unicode="Y" horiz-adv-x="962" d="M29 1622h247l287 -891l271 891h102l-375 -1204v-418h-110v418z" />
<glyph unicode="Z" horiz-adv-x="1038" d="M102 -2q74 143 151 322.5t159 396.5q156 424 276 835h-489v84l544 2h104.5t88.5 -2q-61 -221 -130 -438t-144 -434q-76 -217 -144.5 -386t-130.5 -292h500v-88h-785z" />
<glyph unicode="[" horiz-adv-x="600" d="M123 -121v1882h354v-86h-139v-1712h137v-84h-352z" />
<glyph unicode="\" horiz-adv-x="765" d="M123 1782h110l410 -1970h-111z" />
<glyph unicode="]" horiz-adv-x="600" d="M123 -35h139v1712h-137v84h352v-1882h-354v86z" />
<glyph unicode="^" horiz-adv-x="622" d="M123 1434v79l184 125l193 -125v-79l-193 92z" />
<glyph unicode="_" horiz-adv-x="784" d="M6 -109h787v-81h-787v81z" />
<glyph unicode="`" horiz-adv-x="477" d="M123 1589l22 125l146 -143q10 -10 26.5 -25.5t36.5 -38.5l-14 -80q-78 57 -141 105q-14 10 -34 23.5t-42 33.5z" />
<glyph unicode="a" horiz-adv-x="1167" d="M82 334v84h151l318 1274l534 -1674q-43 -26 -180 -26h-10h-27l-114 342h-432q-18 -70 -32 -114t-22 -64q-41 -109 -106 -144q-23 -12 -39 -12q-29 0 -29 29q0 8 31 51t37 63q4 10 16 57.5t35 133.5h-131zM342 418h387l-213 708z" />
<glyph unicode="b" horiz-adv-x="1144" d="M51 1036v84h150v215q0 154 82 239t235 85q156 0 252 -80q104 -86 104 -238q0 -186 -212 -264q172 -25 284 -168q117 -145 117 -315q0 -309 -215 -465q-188 -137 -508 -137q-70 0 -139 6v1038h-150zM418 109h28q102 0 201 38q305 127 305 453q0 213 -166 334 q-142 102 -360 102h-8v-927zM418 1120h31q121 0 210 43q119 57 119 178q0 211 -227 211q-133 0 -133 -172v-260z" />
<glyph unicode="c" horiz-adv-x="784" d="M82 774q0 301 156 543q164 258 444 336v-86q-195 -53 -326 -226q-120 -157 -163 -366q80 139 141 182q-33 -80 -33 -364q0 -285 33 -365q-61 45 -144 188q41 -186 152 -323q119 -150 287 -211v-94q-250 76 -402 301q-145 219 -145 485z" />
<glyph unicode="d" horiz-adv-x="1097" d="M51 -2v84h103v1253q0 72 21.5 131.5t62.5 102.5t97 66.5t128 23.5q113 0 223 -74q166 -113 254 -340q76 -191 76 -422q0 -569 -420 -762q-135 -63 -266 -63h-279zM371 82q125 12 229 82q305 190 305 651q0 193 -57 359q-66 195 -189 305q-83 73 -155 73h-2 q-131 0 -131 -174v-1296z" />
<glyph unicode="e" horiz-adv-x="800" d="M82 334v84h102q-71 172 -71 351q0 306 155 548q168 260 447 336v-86q-61 -14 -140 -68q-293 -188 -337 -532q82 160 129 194q-25 -133 -25 -416v-329l313 2v-84h-309q23 -61 135 -150q106 -80 178 -102v-94q-117 35 -243 137q-115 98 -187 209h-147z" />
<glyph unicode="f" horiz-adv-x="880" d="M51 334v84h152v354q0 299 153 545q170 268 443 336v-64v-20q-186 -49 -326 -232q-131 -173 -149 -372q82 150 145 190q-33 -78 -33 -364v-373h305v-84h-305v-316q-64 -30 -162 -30h-6q-33 0 -65 6v340h-152z" />
<glyph unicode="g" horiz-adv-x="1288" d="M82 819q0 178 49 342q61 205 191 344q150 162 346 162q158 0 297 -115q-51 -70 -64 -69q1 0 1 1q0 4 -75 46q-84 47 -149 47q-221 0 -356 -215q-51 -86 -84.5 -189.5t-47.5 -228.5q16 29 35 57.5t37 57.5q47 70 88 98q-33 -78 -33 -364q0 -287 33 -365q-63 45 -147 193 q41 -219 145 -365q133 -188 324 -188q172 0 286 145v344q0 150 -79 199q41 10 77 10q6 0 11 -2q4 -2 11 -4t17 -4q121 -35 156 -138q10 -33 18.5 -65.5t16.5 -65.5v-65q-72 -188 -195 -305q-143 -143 -323 -144q-193 0 -346 164q-129 137 -191 344q-49 162 -49 338z" />
<glyph unicode="h" d="M123 -6v1624q76 31 147 31q16 0 37 -1t43 -3v-766h383v739q42 29 101 29h8v-1649h-109v797h-383v-777q-57 -30 -151 -30h-6q-37 0 -70 6z" />
<glyph unicode="i" horiz-adv-x="473" d="M123 -8v422v782v422q76 31 149 31q16 0 36 -1t42 -3v-1627q-76 -30 -143 -30h-4q-16 0 -37 1t-43 3z" />
<glyph unicode="j" horiz-adv-x="573" d="M-102 -211q47 14 92 36.5t86 51.5q92 61 137 143q18 33 18 43v1573h220v-1085q0 -686 -553 -848v86z" />
<glyph unicode="k" d="M125 -4v1640h215v-762q213 274 254 349q106 186 106 413h93q0 -328 -226 -602q80 -68 115 -135q27 -55 49 -170l131 -731h-100l-131 729q-8 45 -18.5 78t-20.5 53t-30.5 46t-53.5 57l-170 -222v-723q-63 -24 -145 -24h-7q-10 0 -25.5 1t-35.5 3z" />
<glyph unicode="l" horiz-adv-x="757" d="M123 -2v1620q76 31 149 31q16 0 36 -1t44 -3v-1563h336q8 -16 8 -41q0 -27 -8 -43h-565z" />
<glyph unicode="m" horiz-adv-x="972" d="M123 -6v1644h47q319 0 385 -151q70 149 257 149h3h35v-1638h-105v1532q-72 -12 -119.5 -72.5t-60.5 -136.5h-22q-31 184 -203 209v-1514q-49 -26 -140 -26h-7q-16 0 -35 1t-35 3z" />
<glyph unicode="n" horiz-adv-x="962" d="M123 -6v82v1472l119 103q57 -2 182 -201q39 -63 73.5 -126.5t67.5 -127.5q53 -109 88 -203q68 -176 80 -288v921q49 23 99 23h8v-1651h-107v43v25q0 463 -215 960q-94 221 -178 311v-1321q-49 -26 -140 -26h-7q-16 0 -35 1t-35 3z" />
<glyph unicode="o" horiz-adv-x="1351" d="M82 819q0 166 47 326q61 209 195 348q158 164 352 164q195 0 352 -164q129 -135 195 -348q47 -160 47 -326q0 -178 -53 -344q-66 -203 -197 -334q-153 -155 -342 -155h-2q-195 0 -344 155q-131 131 -197 334q-53 166 -53 344zM190 969q78 141 144 188q-33 -80 -33 -364 q0 -285 33 -365q-49 33 -123 154q53 -207 156 -338q129 -166 313 -166q162 0 287 143q104 121 155 291q43 143 43 307t-43 311q-51 170 -155 291q-127 141 -287 142q-213 0 -348 -199q-109 -159 -142 -395z" />
<glyph unicode="p" horiz-adv-x="1144" d="M51 334v84h150v917q0 72 21.5 131.5t62.5 102.5t97 66.5t128 23.5q258 0 412 -195q141 -178 141 -442q0 -217 -105.5 -383t-302.5 -252q-125 -53 -237 -53v-318q-49 -26 -141 -26h-7q-16 0 -34.5 1t-34.5 3v340h-150zM418 418q94 0 194 51q154 76 248 225q92 150 92 322 q0 387 -254 504q-66 32 -140 32h-5q-135 0 -135 -174v-960z" />
<glyph unicode="q" horiz-adv-x="1335" d="M82 819q0 182 53 355q66 205 191 335q152 158 342 158q188 0 340 -158q127 -129 192 -335q53 -173 53 -355q0 -410 -223 -663q31 -23 62.5 -40.5t64.5 -31.5v-94q-53 16 -101 41.5t-91 58.5q-139 -117 -297 -117q-190 0 -340 160q-127 129 -193 334q-53 172 -53 352z M182 961q82 150 148 196q-33 -80 -33 -364q0 -285 33 -365q-53 33 -129 166q47 -211 153 -348q131 -178 318 -178q119 0 223 86q-23 25 -44.5 51t-37.5 55q33 37 57 74q29 -61 86 -119q195 229 195 604q0 162 -39 303q-53 182 -151 301q-125 150 -289 150q-211 0 -348 -209 q-111 -170 -142 -403z" />
<glyph unicode="r" horiz-adv-x="1144" d="M51 334v84h150v917q0 72 21.5 131.5t62.5 102.5t97 66.5t128 23.5q258 0 412 -195q141 -178 141 -442q0 -96 -24.5 -185t-70.5 -167t-111.5 -141.5t-149.5 -106.5q10 -96 69 -193q45 -74 137 -147q10 -6 23.5 -16.5t32.5 -24.5q-8 -18 -51 -33q-35 -12 -60 -12 q-45 35 -84 78t-74 94q-78 117 -90 211q-53 -20 -101 -31.5t-91 -13.5v-318q-49 -26 -141 -26h-7q-16 0 -34.5 1t-34.5 3v340h-150zM418 418q47 4 96 18.5t100 40.5q78 39 140.5 96.5t106.5 127t67.5 149.5t23.5 166q0 387 -254 504q-66 32 -140 32h-5q-135 0 -135 -174 v-960z" />
<glyph unicode="s" horiz-adv-x="772" d="M102 27q0 14 9 22q10 10 108 41q100 31 152 76q75 67 75 179t-81 267q-39 70 -77 139.5t-77 139.5q-84 168 -84 291q0 197 133 342q119 131 209 131q59 0 90 -70q-82 -31 -139 -119q-55 -86 -55 -174q0 -135 151 -422q154 -283 154 -428q0 -137 -99 -254 q-115 -139 -360 -194q-23 -6 -43 -6q-66 0 -66 39z" />
<glyph unicode="t" horiz-adv-x="915" d="M82 1552v84h752v-84h-256v-1534q-66 -28 -158 -28h-6q-37 0 -74 6v1556h-258z" />
<glyph unicode="u" horiz-adv-x="960" d="M123 293v1325q76 31 147 31q16 0 37 -1t43 -3v-1375q0 -82 54.5 -133t136.5 -51t135 51t53 133v1348q44 29 102 29h7v-1346q0 -74 -27 -132t-73 -100t-108.5 -63.5t-135.5 -21.5q-147 0 -254 79q-117 88 -117 230z" />
<glyph unicode="v" horiz-adv-x="993" d="M41 1622q45 27 170 27h45l348 -1117l191 773q8 31 8 100q0 72 -25 137q-31 80 -90 96q37 16 76 17q29 0 55 -17q92 -58 92 -208q0 -100 -30 -238q-35 -127 -99 -381l-213 -829l-460 1427q-12 35 -29 88t-39 125z" />
<glyph unicode="w" horiz-adv-x="1167" d="M41 1636h207l268 -1097l80 315q-2 4 -5 22.5t-11 51.5l-156 708h115l239 -1097l154 698q20 90 20 168q0 70 -24 135q-35 84 -90 98q37 16 75 17q23 0 56 -17q96 -49 96 -231q0 -72 -23 -190q-2 -4 -23.5 -107.5t-64.5 -306.5l-170 -817l-143 647l-174 -647l-371 1437 q-10 35 -24.5 88.5t-30.5 124.5z" />
<glyph unicode="x" horiz-adv-x="925" d="M102 1636h215q43 -209 191 -690q41 115 81 267.5t81 345.5q2 14 6 32.5t10 44.5q6 2 29 2h35.5t42.5 -2q-59 -270 -119 -482t-119 -372q70 -221 136.5 -415.5t131.5 -368.5h-215q-41 104 -84 225t-90 262q-59 -152 -106 -272.5t-86 -214.5h-129q63 135 130.5 295 t143.5 350q-121 352 -160 492q-82 274 -125 501z" />
<glyph unicode="y" horiz-adv-x="962" d="M29 1622h247l287 -891l271 891h102l-375 -1204v-418h-110v418z" />
<glyph unicode="z" horiz-adv-x="1038" d="M102 -2q74 143 151 322.5t159 396.5q156 424 276 835h-489v84l544 2h104.5t88.5 -2q-61 -221 -130 -438t-144 -434q-76 -217 -144.5 -386t-130.5 -292h500v-88h-785z" />
<glyph unicode="{" horiz-adv-x="677" d="M123 821q86 39 113 287q20 178 36.5 284.5t26.5 141.5q68 217 256 217v-76q-80 2 -103.5 -27.5t-23.5 -107.5v-510v-20.5t2 -28.5v-49q0 -61 -84 -111q68 -49 78 -73q4 -12 4 -103v-569q0 -66 29.5 -90.5t97.5 -22.5v-86q-180 0 -250 221q-23 70 -67 430 q-35 252 -115 293z" />
<glyph unicode="|" horiz-adv-x="356" d="M123 -188v1970h110v-1970h-110z" />
<glyph unicode="}" horiz-adv-x="684" d="M129 -35q80 -2 107 31q20 27 20 104v510q0 16 -2 50t-2 51q0 59 86 108q-72 51 -80 74q-2 6 -2 102v570q0 66 -30.5 90t-96.5 22v86q178 0 250 -219q20 -74 67 -430q35 -254 115 -295q-88 -41 -115 -287q-41 -354 -61 -423q-68 -219 -256 -220v76z" />
<glyph unicode="~" horiz-adv-x="878" d="M123 379q76 92 184 92q59 0 129 -35q74 -35 117 -35q104 0 139 72l64 -72q-59 -86 -197 -86q-66 0 -133 33q-70 35 -117 35t-78 -18q-8 -4 -24.5 -16.5t-38.5 -33.5z" />
<glyph unicode="&#xa9;" horiz-adv-x="1404" d="M123 803q0 240 170 409q170 170 409 170q240 0 410 -170q170 -169 170 -409t-170 -410t-410 -170t-409 170q-170 170 -170 410zM190 805q0 -215 150 -365t365 -149q215 0 364 149q152 152 152 365q0 211 -152 362q-152 152 -364 152q-211 0 -363 -152t-152 -362zM367 803 q0 362 405 424v-51v-19q-250 -43 -303 -221q78 100 135 127q-33 -59 -33 -266t33 -267q-35 18 -123 111q70 -176 295 -178l-4 -74q-406 14 -405 414z" />
<glyph unicode="&#xab;" horiz-adv-x="917" d="M111 637q0 10 16 27q8 8 123 92l262 192v-96l-258 -209l258 -209v-100l-262 188q-25 16 -56.5 40t-70.5 52q-12 12 -12 23zM393 637q0 12 15 27q8 8 124 92l263 192v-96l-260 -209l260 -209v-100l-265 188q-27 16 -57.5 40t-69.5 52q-10 10 -10 23z" />
<glyph unicode="&#xad;" horiz-adv-x="647" d="M123 334v84h401v-84h-401z" />
<glyph unicode="&#xae;" horiz-adv-x="1404" d="M123 803q0 240 170 409q170 170 409 170q240 0 410 -170q170 -169 170 -409t-170 -410t-410 -170t-409 170q-170 170 -170 410zM190 805q0 -215 150 -365t365 -149q215 0 364 149q152 152 152 365q0 211 -152 362q-152 152 -364 152q-211 0 -363 -152t-152 -362zM457 575 v72h75v557q16 2 32 3t32 1q166 0 268 -73q119 -82 119 -244q0 -184 -154 -277q6 -47 37 -98q16 -27 44 -51.5t53 -44.5q-53 -47 -84 -47q-102 76 -138 209q-10 -4 -75 -7h-9v-190q-35 -14 -88 -14h-18t-19 2v202h-75zM657 647q246 0 246 240q0 53 -16.5 97t-47 77t-73.5 50 t-94 17l-15 -2v-479z" />
<glyph unicode="&#xbb;" horiz-adv-x="915" d="M123 334v100l258 209l-258 209v96l387 -284q14 -8 14 -27q0 -10 -12 -23q-2 -2 -31.5 -24.5t-89.5 -63.5zM403 334v100l261 209l-261 209v96l388 -284q14 -8 14 -27q0 -10 -12 -23q-2 -2 -32 -24.5t-89 -63.5z" />
<glyph unicode="&#x401;" horiz-adv-x="729" d="M86 0v1638l563 -2v-84h-325v-671h270v-84h-270v-713h331v-84h-569zM195 1780q0 63 63 63q66 0 66 -63t-64 -64q-66 0 -65 64zM412 1780q0 63 63 63q64 0 64 -63t-64 -64q-63 0 -63 64z" />
<glyph unicode="&#x404;" horiz-adv-x="995" d="M45 819q0 178 49 342q61 205 191 344q150 162 346 162q158 0 297 -115q-49 -66 -62 -69q0 4 -75 47q-84 47 -150 47q-221 0 -356 -215q-51 -86 -84 -189.5t-47 -228.5q16 29 34.5 57.5t36.5 57.5q47 70 88 98q-27 -66 -32 -278h421v-84h-421v-2q0 -287 32 -365 q-63 45 -147 193q41 -219 145 -365q133 -188 324 -188q66 0 149 47q80 43 76 47q12 -4 62 -70q-139 -115 -297 -115l6 -4q-193 0 -346 164q-129 137 -191 344q-49 162 -49 338z" />
<glyph unicode="&#x406;" horiz-adv-x="473" d="M123 -8v422v782v422q76 31 149 31q16 0 36 -1t42 -3v-1627q-78 -31 -147 -30q-16 0 -37 1t-43 3z" />
<glyph unicode="&#x407;" horiz-adv-x="479" d="M84 1778q0 61 63 61q66 0 66 -61q0 -63 -63 -64q-66 0 -66 64zM123 -8v422v782v422q76 31 149 31q16 0 36 -1t42 -3v-1627q-78 -31 -147 -30q-16 0 -37 1t-43 3zM268 1778q0 61 64 61q63 0 63 -61q0 -63 -63 -64q-63 0 -64 64z" />
<glyph unicode="&#x40e;" horiz-adv-x="899" d="M61 1636h261q49 -469 235 -938q63 205 108.5 437.5t71.5 500.5h101q-90 -850 -412 -1638h-115l127 338q-297 633 -377 1300zM242 1894l90 33q16 -55 59 -81.5t92 -25.5t93.5 27.5t62.5 79.5l82 -24q-12 -90 -82 -135.5t-153 -45.5t-154.5 44t-89.5 128z" />
<glyph unicode="&#x410;" horiz-adv-x="1167" d="M82 334v84h151l318 1274l534 -1674q-45 -27 -190 -26h-27l-114 342h-432q-18 -70 -32 -114t-22 -64q-41 -109 -106 -144q-23 -12 -39 -12q-29 0 -29 29q0 8 31 51t37 63q4 10 16 57.5t35 133.5h-131zM342 418h387l-213 708z" />
<glyph unicode="&#x411;" horiz-adv-x="1144" d="M51 1036v84h150l2 518l710 -2v-84h-493l-2 -422q139 2 258 -33.5t205 -105t134 -171t48 -226.5q0 -309 -215 -465q-186 -137 -508 -137q-70 0 -139 6v1038h-150zM418 109h28q104 0 201 38q305 127 305 453q0 109 -45 191.5t-119.5 138t-171 82t-198.5 24.5v-927z" />
<glyph unicode="&#x412;" horiz-adv-x="1144" d="M51 1036v84h150v215q0 154 82 239t235 85q156 0 252 -80q104 -86 104 -238q0 -186 -212 -264q172 -25 284 -168q117 -145 117 -315q0 -309 -215 -465q-188 -137 -508 -137q-70 0 -139 6v1038h-150zM418 109h28q102 0 201 38q305 127 305 453q0 213 -166 334 q-145 104 -368 102v-927zM418 1120h31q121 0 210 43q119 57 119 178q0 211 -227 211q-133 0 -133 -172v-260z" />
<glyph unicode="&#x413;" horiz-adv-x="761" d="M78 -4v1642l610 -2v-84h-373v-1534q-68 -29 -163 -28q-37 0 -74 6z" />
<glyph unicode="&#x414;" horiz-adv-x="1161" d="M10 84h117q10 39 32.5 133t68.5 277.5t118 473t180 724.5l469 -1608h121v-274h-108v190h-889v-190h-109v274zM227 84h545l-291 1006q-68 -268 -112.5 -449.5t-73.5 -296.5t-44 -174t-24 -86z" />
<glyph unicode="&#x415;" horiz-adv-x="729" d="M86 0v1638l563 -2v-84h-325v-671h270v-84h-270v-713h331v-84h-569z" />
<glyph unicode="&#x416;" horiz-adv-x="1447" d="M86 -2l131 731q23 115 49 170q35 68 115 135q-225 274 -225 602h92q0 -227 106 -413q41 -74 254 -349v762h215v-762q213 274 254 349q106 186 107 413h92q0 -328 -225 -602q80 -68 114 -135q27 -55 49 -170l132 -731h-101l-131 729q-8 45 -18.5 78t-20.5 53t-30.5 46 t-53.5 57l-170 -222v-723q-66 -25 -151 -24q-10 0 -25.5 1t-36.5 3l2 743l-170 222q-33 -31 -53 -56.5t-31 -46.5q-10 -20 -20 -53t-19 -78l-131 -729h-100z" />
<glyph unicode="&#x417;" horiz-adv-x="835" d="M113 55q4 12 11 40t17 57q33 -43 85.5 -61.5t109.5 -15.5t109.5 27.5t84.5 67.5q23 156 14 273.5t-33 200.5t-53.5 135t-45.5 79q14 -10 41.5 -25.5t58.5 -38t61.5 -52t51.5 -66.5q-25 90 -71 150.5t-94 97.5t-89 52t-56 15q-10 0 -40.5 1t-47.5 3v84q23 2 56.5 2h46.5 q43 0 79.5 19.5t64.5 52.5t44.5 73t18.5 81q2 47 -10.5 92t-38 81t-66.5 58.5t-92 22.5q-84 -1 -135 -52q-4 0 -56 64q49 45 103.5 62.5t106.5 13.5t100.5 -25.5t85.5 -52.5q63 -55 88.5 -133t13.5 -157t-61.5 -146.5t-135.5 -100.5q166 -59 250 -231q33 -74 48.5 -158 t11 -170t-27 -166t-63.5 -143q-39 -59 -105.5 -103.5t-144 -62.5t-156.5 -7t-140 62z" />
<glyph unicode="&#x418;" d="M123 -6v1624q76 31 147 31q16 0 37 -1t43 -3v-1209l383 1012v170q45 31 109 29v-1649h-109v1192l-383 -1008v-164q-59 -31 -157 -30q-37 0 -70 6z" />
<glyph unicode="&#x419;" d="M123 -6v1624q76 31 147 31q16 0 37 -1t43 -3v-1209l383 1012v170q47 31 109 29v-1649h-109v1192l-383 -1008v-164q-59 -31 -157 -30q-37 0 -70 6zM285 1894l90 33q16 -55 59 -81.5t92 -25.5t93.5 27.5t62.5 79.5l82 -24q-12 -90 -82 -135.5t-153 -45.5t-154.5 44 t-89.5 128z" />
<glyph unicode="&#x41a;" d="M125 -4v1640h215v-762q213 274 254 349q106 186 106 413h93q0 -328 -226 -602q80 -68 115 -135q27 -55 49 -170l131 -731h-100l-131 729q-8 45 -18.5 78t-20.5 53t-30.5 46t-53.5 57l-170 -222v-723q-66 -25 -152 -24q-10 0 -25.5 1t-35.5 3z" />
<glyph unicode="&#x41b;" horiz-adv-x="1101" d="M61 29q0 8 31 51t37 63q2 4 5 17.5t16.5 62.5t38 147.5t66.5 268.5t106.5 427t156.5 626l535 -1674q-45 -27 -191 -26h-26l-353 1134q-55 -221 -94 -376.5t-65.5 -262t-43 -169t-25.5 -96.5t-13 -47t-6 -19q-41 -109 -107 -144q-23 -12 -39 -12q-29 0 -29 29z" />
<glyph unicode="&#x41c;" horiz-adv-x="972" d="M123 -6v1644h47q319 0 385 -151q70 150 260 149h35v-1638h-105v1532q-72 -12 -119.5 -72.5t-60.5 -136.5h-22q-31 184 -203 209v-1514q-51 -27 -147 -26q-16 0 -35 1t-35 3z" />
<glyph unicode="&#x41d;" d="M123 -6v1624q76 31 147 31q16 0 37 -1t43 -3v-766h383v739q45 31 109 29v-1649h-109v797h-383v-777q-59 -31 -157 -30q-37 0 -70 6z" />
<glyph unicode="&#x41e;" horiz-adv-x="1351" d="M82 819q0 166 47 326q61 209 195 348q158 164 352 164q195 0 352 -164q129 -135 195 -348q47 -160 47 -326q0 -178 -53 -344q-66 -203 -197 -334q-154 -156 -344 -155q-195 0 -344 155q-131 131 -197 334q-53 166 -53 344zM190 969q78 141 144 188q-33 -80 -33 -364 q0 -285 33 -365q-49 33 -123 154q53 -207 156 -338q129 -166 313 -166q162 0 287 143q104 121 155 291q43 143 43 307t-43 311q-51 170 -155 291q-127 141 -287 142q-213 0 -348 -199q-109 -159 -142 -395z" />
<glyph unicode="&#x41f;" d="M123 -6v1665l719 -2v-1659h-109v1575h-383v-1555q-59 -31 -157 -30q-37 0 -70 6z" />
<glyph unicode="&#x420;" horiz-adv-x="1144" d="M51 334v84h150v917q0 72 21.5 131.5t62.5 102.5t97 66.5t128 23.5q258 0 412 -195q141 -178 141 -442q0 -217 -105.5 -383t-302.5 -252q-125 -53 -237 -53v-318q-51 -27 -148 -26q-16 0 -34.5 1t-34.5 3v340h-150zM418 418q94 0 194 51q154 76 248 225q92 150 92 322 q0 387 -254 504q-68 33 -145 32q-135 0 -135 -174v-960z" />
<glyph unicode="&#x421;" horiz-adv-x="784" d="M82 774q0 301 156 543q164 258 444 336v-86q-195 -53 -326 -226q-120 -157 -163 -366q80 139 141 182q-33 -80 -33 -364q0 -285 33 -365q-61 45 -144 188q41 -186 152 -323q119 -150 287 -211v-94q-250 76 -402 301q-145 219 -145 485z" />
<glyph unicode="&#x422;" horiz-adv-x="915" d="M82 1552v84h752v-84h-256v-1534q-68 -29 -164 -28q-37 0 -74 6v1556h-258z" />
<glyph unicode="&#x423;" horiz-adv-x="899" d="M61 1636h261q49 -469 235 -938q63 205 108.5 437.5t71.5 500.5h101q-90 -850 -412 -1638h-115l127 338q-297 633 -377 1300z" />
<glyph unicode="&#x424;" horiz-adv-x="1685" d="M100 862q0 131 40 243t120 191.5t200 124.5t281 45v172h220v-172q162 0 281.5 -45t199.5 -124.5t120 -191.5t40 -243q0 -147 -41 -268t-121 -207t-199 -134t-276 -48h-7v-189q-51 -27 -147 -26q-16 0 -34.5 1t-35.5 3l2 211h-6q-158 0 -276.5 48t-198.5 134t-121 207 t-41 268zM209 854q0 -119 31.5 -221.5t97 -177t166 -115.5t239.5 -39v1069q-133 2 -232 -37t-167 -108.5t-101.5 -164.5t-33.5 -206zM958 301q137 -2 238.5 39t167.5 115.5t97.5 177t31.5 221.5q0 111 -34 206t-101.5 164.5t-167.5 108.5t-232 37v-1069z" />
<glyph unicode="&#x425;" horiz-adv-x="925" d="M102 1636h215q43 -209 191 -690q41 115 81 267.5t81 345.5q2 14 6 32.5t10 44.5q6 2 29 2h35.5t42.5 -2q-59 -270 -119 -482t-119 -372q70 -221 136.5 -415.5t131.5 -368.5h-215q-41 104 -84 225t-90 262q-59 -152 -106 -272.5t-86 -214.5h-129q63 135 130.5 295 t143.5 350q-121 352 -160 492q-82 274 -125 501z" />
<glyph unicode="&#x426;" horiz-adv-x="1019" d="M123 0v1618q76 31 147 31q16 0 37 -1t43 -3l2 -1561h383l-2 1534q47 31 109 29l2 -1561l110 -2v-274h-108v190h-723z" />
<glyph unicode="&#x427;" d="M121 1106v541q63 2 108 -29l2 -518q0 -59 20.5 -99t64.5 -66t117 -38t179 -14v762q23 2 43.5 3t36.5 1q72 0 148 -31v-1624q-33 -6 -70 -6q-98 0 -158 30v762q-141 -4 -236 20.5t-152.5 68.5t-81 104.5t-21.5 132.5z" />
<glyph unicode="&#x428;" horiz-adv-x="1468" d="M123 0v1618q76 31 147 31q16 0 37 -1t43 -3l2 -1561h383l-2 1534q47 31 109 29l2 -1561h383l-2 1534q47 31 108 29v-1649h-1210z" />
<glyph unicode="&#x429;" horiz-adv-x="1519" d="M123 0v1618q76 31 147 31q16 0 37 -1t43 -3l2 -1561h383l-2 1534q47 31 109 29l2 -1561h383l-2 1534q47 31 108 29v-1563l111 -2v-274h-109v190h-1212z" />
<glyph unicode="&#x42a;" horiz-adv-x="1298" d="M96 1552v84l475 2v-508q139 2 258 -33.5t205 -105t134.5 -171t48.5 -226.5q0 -309 -216 -465q-186 -137 -507 -137q-70 0 -140 6v1046h-149v84h149v424h-258zM571 109h29q104 0 201 38q305 127 305 453q0 109 -45 191.5t-120 138t-171 82t-199 24.5v-927z" />
<glyph unicode="&#x42b;" horiz-adv-x="1503" d="M76 1044v84h149l2 490q80 31 152 31q16 0 28.5 -1t34.5 -3v-515q139 2 258 -33.5t205 -105t134 -171t48 -226.5q0 -309 -215 -465q-186 -137 -507 -137q-70 0 -140 6v1046h-149zM442 109h29q104 0 201 38q305 127 305 453q0 109 -45 191.5t-120 138t-171 82t-199 24.5 v-927zM1190 -12v1626q76 31 149 31q16 0 36 -1.5t42 -3.5v-1626q-78 -31 -147 -30q-16 0 -37 1t-43 3z" />
<glyph unicode="&#x42c;" horiz-adv-x="1169" d="M76 1044v84h149l2 490q80 31 152 31q16 0 28.5 -1t34.5 -3v-515q139 2 258 -33.5t205 -105t134 -171t48 -226.5q0 -309 -215 -465q-186 -137 -507 -137q-70 0 -140 6v1046h-149zM442 109h29q104 0 201 38q305 127 305 453q0 109 -45 191.5t-120 138t-171 82t-199 24.5 v-927z" />
<glyph unicode="&#x42d;" horiz-adv-x="995" d="M47 1552q139 115 297 115q197 0 346 -162q129 -139 191 -344q49 -164 49 -342q0 -176 -49 -338q-61 -207 -191 -344q-154 -164 -346 -164l6 4q-158 0 -297 115q49 66 62 70q-4 -4 75 -47q84 -47 150 -47q190 0 324 188q104 145 145 365q-84 -147 -147 -193q33 78 32 365 v2h-422v84h422q-6 213 -32 278q41 -29 88 -98q18 -29 36.5 -57.5t34.5 -57.5q-14 125 -47 228.5t-84 189.5q-135 215 -356 215q-66 0 -150 -47q-76 -43 -75 -47q-12 4 -62 69z" />
<glyph unicode="&#x42e;" horiz-adv-x="1714" d="M109 -6v1624q76 31 147 31q16 0 36.5 -1t43.5 -3v-766h98q8 135 47 268q61 209 195 348q158 164 352 164q195 0 352 -164q129 -135 195 -348q47 -160 47 -326q0 -178 -53 -344q-66 -203 -197 -334q-154 -156 -344 -155q-195 0 -344 155q-131 131 -197 334 q-49 154 -53 318h-98v-777q-59 -31 -158 -30q-37 0 -69 6zM543 971q78 141 143 188q-33 -80 -33 -364q0 -285 33 -365q-49 33 -123 154q53 -207 156 -338q129 -166 313 -166q162 0 287 143q104 121 156 291q43 143 43 307t-43 312q-51 170 -156 290q-127 141 -287 142 q-213 0 -348 -199q-108 -159 -141 -395z" />
<glyph unicode="&#x42f;" horiz-adv-x="1044" d="M84 1008q0 143 43 259.5t126 199.5t202.5 131.5t273.5 56.5h219l-2 -1661q-16 -2 -34.5 -3t-34.5 -1q-96 0 -148 26v318q-43 2 -91 13t-101 32q-12 -100 -91 -217q-35 -51 -73.5 -94t-83.5 -78q-27 0 -60 12q-43 14 -51 33l31.5 24.5t23.5 16.5q90 72 138 147 q59 98 69 199q-166 86 -261 240.5t-95 345.5zM195 1001q0 -172 91 -309t246 -215q51 -27 100.5 -41t96.5 -18v1145q-115 -10 -213 -45t-170 -101.5t-111.5 -169t-39.5 -246.5z" />
<glyph unicode="&#x430;" horiz-adv-x="1167" d="M82 334v84h151l318 1274l534 -1674q-45 -27 -190 -26h-27l-114 342h-432q-18 -70 -32 -114t-22 -64q-41 -109 -106 -144q-23 -12 -39 -12q-29 0 -29 29q0 8 31 51t37 63q4 10 16 57.5t35 133.5h-131zM342 418h387l-213 708z" />
<glyph unicode="&#x431;" horiz-adv-x="1144" d="M51 1036v84h150l2 518l710 -2v-84h-493l-2 -422q139 2 258 -33.5t205 -105t134 -171t48 -226.5q0 -309 -215 -465q-186 -137 -508 -137q-70 0 -139 6v1038h-150zM418 109h28q104 0 201 38q305 127 305 453q0 109 -45 191.5t-119.5 138t-171 82t-198.5 24.5v-927z" />
<glyph unicode="&#x432;" horiz-adv-x="1144" d="M51 1036v84h150v215q0 154 82 239t235 85q156 0 252 -80q104 -86 104 -238q0 -186 -212 -264q172 -25 284 -168q117 -145 117 -315q0 -309 -215 -465q-188 -137 -508 -137q-70 0 -139 6v1038h-150zM418 109h28q102 0 201 38q305 127 305 453q0 213 -166 334 q-145 104 -368 102v-927zM418 1120h31q121 0 210 43q119 57 119 178q0 211 -227 211q-133 0 -133 -172v-260z" />
<glyph unicode="&#x433;" horiz-adv-x="761" d="M78 -4v1642l610 -2v-84h-373v-1534q-68 -29 -163 -28q-37 0 -74 6z" />
<glyph unicode="&#x434;" horiz-adv-x="1161" d="M10 84h117q10 39 32.5 133t68.5 277.5t118 473t180 724.5l469 -1608h121v-274h-108v190h-889v-190h-109v274zM227 84h545l-291 1006q-68 -268 -112.5 -449.5t-73.5 -296.5t-44 -174t-24 -86z" />
<glyph unicode="&#x435;" horiz-adv-x="729" d="M86 0v1638l563 -2v-84h-325v-671h270v-84h-270v-713h331v-84h-569z" />
<glyph unicode="&#x436;" horiz-adv-x="1447" d="M86 -2l131 731q23 115 49 170q35 68 115 135q-225 274 -225 602h92q0 -227 106 -413q41 -74 254 -349v762h215v-762q213 274 254 349q106 186 107 413h92q0 -328 -225 -602q80 -68 114 -135q27 -55 49 -170l132 -731h-101l-131 729q-8 45 -18.5 78t-20.5 53t-30.5 46 t-53.5 57l-170 -222v-723q-66 -25 -151 -24q-10 0 -25.5 1t-36.5 3l2 743l-170 222q-33 -31 -53 -56.5t-31 -46.5q-10 -20 -20 -53t-19 -78l-131 -729h-100z" />
<glyph unicode="&#x437;" horiz-adv-x="835" d="M113 55q4 12 11 40t17 57q33 -43 85.5 -61.5t109.5 -15.5t109.5 27.5t84.5 67.5q23 156 14 273.5t-33 200.5t-53.5 135t-45.5 79q14 -10 41.5 -25.5t58.5 -38t61.5 -52t51.5 -66.5q-25 90 -71 150.5t-94 97.5t-89 52t-56 15q-10 0 -40.5 1t-47.5 3v84q23 2 56.5 2h46.5 q43 0 79.5 19.5t64.5 52.5t44.5 73t18.5 81q2 47 -10.5 92t-38 81t-66.5 58.5t-92 22.5q-84 -1 -135 -52q-4 0 -56 64q49 45 103.5 62.5t106.5 13.5t100.5 -25.5t85.5 -52.5q63 -55 88.5 -133t13.5 -157t-61.5 -146.5t-135.5 -100.5q166 -59 250 -231q33 -74 48.5 -158 t11 -170t-27 -166t-63.5 -143q-39 -59 -105.5 -103.5t-144 -62.5t-156.5 -7t-140 62z" />
<glyph unicode="&#x438;" d="M123 -6v1624q76 31 147 31q16 0 37 -1t43 -3v-1209l383 1012v170q45 31 109 29v-1649h-109v1192l-383 -1008v-164q-59 -31 -157 -30q-37 0 -70 6z" />
<glyph unicode="&#x439;" d="M123 -6v1624q76 31 147 31q16 0 37 -1t43 -3v-1209l383 1012v170q47 31 109 29v-1649h-109v1192l-383 -1008v-164q-59 -31 -157 -30q-37 0 -70 6zM285 1894l90 33q16 -55 59 -81.5t92 -25.5t93.5 27.5t62.5 79.5l82 -24q-12 -90 -82 -135.5t-153 -45.5t-154.5 44 t-89.5 128z" />
<glyph unicode="&#x43a;" d="M125 -4v1640h215v-762q213 274 254 349q106 186 106 413h93q0 -328 -226 -602q80 -68 115 -135q27 -55 49 -170l131 -731h-100l-131 729q-8 45 -18.5 78t-20.5 53t-30.5 46t-53.5 57l-170 -222v-723q-66 -25 -152 -24q-10 0 -25.5 1t-35.5 3z" />
<glyph unicode="&#x43b;" horiz-adv-x="1101" d="M61 29q0 8 31 51t37 63q2 4 5 17.5t16.5 62.5t38 147.5t66.5 268.5t106.5 427t156.5 626l535 -1674q-45 -27 -191 -26h-26l-353 1134q-55 -221 -94 -376.5t-65.5 -262t-43 -169t-25.5 -96.5t-13 -47t-6 -19q-41 -109 -107 -144q-23 -12 -39 -12q-29 0 -29 29z" />
<glyph unicode="&#x43c;" horiz-adv-x="972" d="M123 -6v1644h47q319 0 385 -151q70 150 260 149h35v-1638h-105v1532q-72 -12 -119.5 -72.5t-60.5 -136.5h-22q-31 184 -203 209v-1514q-51 -27 -147 -26q-16 0 -35 1t-35 3z" />
<glyph unicode="&#x43d;" d="M123 -6v1624q76 31 147 31q16 0 37 -1t43 -3v-766h383v739q45 31 109 29v-1649h-109v797h-383v-777q-59 -31 -157 -30q-37 0 -70 6z" />
<glyph unicode="&#x43e;" horiz-adv-x="1351" d="M82 819q0 166 47 326q61 209 195 348q158 164 352 164q195 0 352 -164q129 -135 195 -348q47 -160 47 -326q0 -178 -53 -344q-66 -203 -197 -334q-154 -156 -344 -155q-195 0 -344 155q-131 131 -197 334q-53 166 -53 344zM190 969q78 141 144 188q-33 -80 -33 -364 q0 -285 33 -365q-49 33 -123 154q53 -207 156 -338q129 -166 313 -166q162 0 287 143q104 121 155 291q43 143 43 307t-43 311q-51 170 -155 291q-127 141 -287 142q-213 0 -348 -199q-109 -159 -142 -395z" />
<glyph unicode="&#x43f;" d="M123 -6v1665l719 -2v-1659h-109v1575h-383v-1555q-59 -31 -157 -30q-37 0 -70 6z" />
<glyph unicode="&#x440;" horiz-adv-x="1144" d="M51 334v84h150v917q0 72 21.5 131.5t62.5 102.5t97 66.5t128 23.5q258 0 412 -195q141 -178 141 -442q0 -217 -105.5 -383t-302.5 -252q-125 -53 -237 -53v-318q-51 -27 -148 -26q-16 0 -34.5 1t-34.5 3v340h-150zM418 418q94 0 194 51q154 76 248 225q92 150 92 322 q0 387 -254 504q-68 33 -145 32q-135 0 -135 -174v-960z" />
<glyph unicode="&#x441;" horiz-adv-x="784" d="M82 774q0 301 156 543q164 258 444 336v-86q-195 -53 -326 -226q-120 -157 -163 -366q80 139 141 182q-33 -80 -33 -364q0 -285 33 -365q-61 45 -144 188q41 -186 152 -323q119 -150 287 -211v-94q-250 76 -402 301q-145 219 -145 485z" />
<glyph unicode="&#x442;" horiz-adv-x="915" d="M82 1552v84h752v-84h-256v-1534q-68 -29 -164 -28q-37 0 -74 6v1556h-258z" />
<glyph unicode="&#x443;" horiz-adv-x="899" d="M61 1636h261q49 -469 235 -938q63 205 108.5 437.5t71.5 500.5h101q-90 -850 -412 -1638h-115l127 338q-297 633 -377 1300z" />
<glyph unicode="&#x444;" horiz-adv-x="1685" d="M100 862q0 131 40 243t120 191.5t200 124.5t281 45v172h220v-172q162 0 281.5 -45t199.5 -124.5t120 -191.5t40 -243q0 -147 -41 -268t-121 -207t-199 -134t-276 -48h-7v-189q-51 -27 -147 -26q-16 0 -34.5 1t-35.5 3l2 211h-6q-158 0 -276.5 48t-198.5 134t-121 207 t-41 268zM209 854q0 -119 31.5 -221.5t97 -177t166 -115.5t239.5 -39v1069q-133 2 -232 -37t-167 -108.5t-101.5 -164.5t-33.5 -206zM958 301q137 -2 238.5 39t167.5 115.5t97.5 177t31.5 221.5q0 111 -34 206t-101.5 164.5t-167.5 108.5t-232 37v-1069z" />
<glyph unicode="&#x445;" horiz-adv-x="925" d="M102 1636h215q43 -209 191 -690q41 115 81 267.5t81 345.5q2 14 6 32.5t10 44.5q6 2 29 2h35.5t42.5 -2q-59 -270 -119 -482t-119 -372q70 -221 136.5 -415.5t131.5 -368.5h-215q-41 104 -84 225t-90 262q-59 -152 -106 -272.5t-86 -214.5h-129q63 135 130.5 295 t143.5 350q-121 352 -160 492q-82 274 -125 501z" />
<glyph unicode="&#x446;" horiz-adv-x="1019" d="M123 0v1618q76 31 147 31q16 0 37 -1t43 -3l2 -1561h383l-2 1534q47 31 109 29l2 -1561l110 -2v-274h-108v190h-723z" />
<glyph unicode="&#x447;" d="M121 1106v541q63 2 108 -29l2 -518q0 -59 20.5 -99t64.5 -66t117 -38t179 -14v762q23 2 43.5 3t36.5 1q72 0 148 -31v-1624q-33 -6 -70 -6q-98 0 -158 30v762q-141 -4 -236 20.5t-152.5 68.5t-81 104.5t-21.5 132.5z" />
<glyph unicode="&#x448;" horiz-adv-x="1468" d="M123 0v1618q76 31 147 31q16 0 37 -1t43 -3l2 -1561h383l-2 1534q47 31 109 29l2 -1561h383l-2 1534q47 31 108 29v-1649h-1210z" />
<glyph unicode="&#x449;" horiz-adv-x="1519" d="M123 0v1618q76 31 147 31q16 0 37 -1t43 -3l2 -1561h383l-2 1534q47 31 109 29l2 -1561h383l-2 1534q47 31 108 29v-1563l111 -2v-274h-109v190h-1212z" />
<glyph unicode="&#x44a;" horiz-adv-x="1298" d="M96 1552v84l475 2v-508q139 2 258 -33.5t205 -105t134.5 -171t48.5 -226.5q0 -309 -216 -465q-186 -137 -507 -137q-70 0 -140 6v1046h-149v84h149v424h-258zM571 109h29q104 0 201 38q305 127 305 453q0 109 -45 191.5t-120 138t-171 82t-199 24.5v-927z" />
<glyph unicode="&#x44b;" horiz-adv-x="1503" d="M76 1044v84h149l2 490q80 31 152 31q16 0 28.5 -1t34.5 -3v-515q139 2 258 -33.5t205 -105t134 -171t48 -226.5q0 -309 -215 -465q-186 -137 -507 -137q-70 0 -140 6v1046h-149zM442 109h29q104 0 201 38q305 127 305 453q0 109 -45 191.5t-120 138t-171 82t-199 24.5 v-927zM1190 -12v1626q76 31 149 31q16 0 36 -1.5t42 -3.5v-1626q-78 -31 -147 -30q-16 0 -37 1t-43 3z" />
<glyph unicode="&#x44c;" horiz-adv-x="1169" d="M76 1044v84h149l2 490q80 31 152 31q16 0 28.5 -1t34.5 -3v-515q139 2 258 -33.5t205 -105t134 -171t48 -226.5q0 -309 -215 -465q-186 -137 -507 -137q-70 0 -140 6v1046h-149zM442 109h29q104 0 201 38q305 127 305 453q0 109 -45 191.5t-120 138t-171 82t-199 24.5 v-927z" />
<glyph unicode="&#x44d;" horiz-adv-x="995" d="M47 1552q139 115 297 115q197 0 346 -162q129 -139 191 -344q49 -164 49 -342q0 -176 -49 -338q-61 -207 -191 -344q-154 -164 -346 -164l6 4q-158 0 -297 115q49 66 62 70q-4 -4 75 -47q84 -47 150 -47q190 0 324 188q104 145 145 365q-84 -147 -147 -193q33 78 32 365 v2h-422v84h422q-6 213 -32 278q41 -29 88 -98q18 -29 36.5 -57.5t34.5 -57.5q-14 125 -47 228.5t-84 189.5q-135 215 -356 215q-66 0 -150 -47q-76 -43 -75 -47q-12 4 -62 69z" />
<glyph unicode="&#x44e;" horiz-adv-x="1714" d="M109 -6v1624q76 31 147 31q16 0 36.5 -1t43.5 -3v-766h98q8 135 47 268q61 209 195 348q158 164 352 164q195 0 352 -164q129 -135 195 -348q47 -160 47 -326q0 -178 -53 -344q-66 -203 -197 -334q-154 -156 -344 -155q-195 0 -344 155q-131 131 -197 334 q-49 154 -53 318h-98v-777q-59 -31 -158 -30q-37 0 -69 6zM543 971q78 141 143 188q-33 -80 -33 -364q0 -285 33 -365q-49 33 -123 154q53 -207 156 -338q129 -166 313 -166q162 0 287 143q104 121 156 291q43 143 43 307t-43 312q-51 170 -156 290q-127 141 -287 142 q-213 0 -348 -199q-108 -159 -141 -395z" />
<glyph unicode="&#x44f;" horiz-adv-x="1044" d="M84 1008q0 143 43 259.5t126 199.5t202.5 131.5t273.5 56.5h219l-2 -1661q-16 -2 -34.5 -3t-34.5 -1q-96 0 -148 26v318q-43 2 -91 13t-101 32q-12 -100 -91 -217q-35 -51 -73.5 -94t-83.5 -78q-27 0 -60 12q-43 14 -51 33l31.5 24.5t23.5 16.5q90 72 138 147 q59 98 69 199q-166 86 -261 240.5t-95 345.5zM195 1001q0 -172 91 -309t246 -215q51 -27 100.5 -41t96.5 -18v1145q-115 -10 -213 -45t-170 -101.5t-111.5 -169t-39.5 -246.5z" />
<glyph unicode="&#x451;" horiz-adv-x="729" d="M86 0v1638l563 -2v-84h-325v-671h270v-84h-270v-713h331v-84h-569zM195 1780q0 63 63 63q66 0 66 -63t-64 -64q-66 0 -65 64zM412 1780q0 63 63 63q64 0 64 -63t-64 -64q-63 0 -63 64z" />
<glyph unicode="&#x454;" horiz-adv-x="995" d="M45 819q0 178 49 342q61 205 191 344q150 162 346 162q158 0 297 -115q-49 -66 -62 -69q0 4 -75 47q-84 47 -150 47q-221 0 -356 -215q-51 -86 -84 -189.5t-47 -228.5q16 29 34.5 57.5t36.5 57.5q47 70 88 98q-27 -66 -32 -278h421v-84h-421v-2q0 -287 32 -365 q-63 45 -147 193q41 -219 145 -365q133 -188 324 -188q66 0 149 47q80 43 76 47q12 -4 62 -70q-139 -115 -297 -115l6 -4q-193 0 -346 164q-129 137 -191 344q-49 162 -49 338z" />
<glyph unicode="&#x456;" horiz-adv-x="473" d="M123 -8v422v782v422q76 31 149 31q16 0 36 -1t42 -3v-1627q-78 -31 -147 -30q-16 0 -37 1t-43 3z" />
<glyph unicode="&#x457;" horiz-adv-x="479" d="M84 1778q0 61 63 61q66 0 66 -61q0 -63 -63 -64q-66 0 -66 64zM123 -8v422v782v422q76 31 149 31q16 0 36 -1t42 -3v-1627q-78 -31 -147 -30q-16 0 -37 1t-43 3zM268 1778q0 61 64 61q63 0 63 -61q0 -63 -63 -64q-63 0 -64 64z" />
<glyph unicode="&#x45e;" horiz-adv-x="899" d="M61 1636h261q49 -469 235 -938q63 205 108.5 437.5t71.5 500.5h101q-90 -850 -412 -1638h-115l127 338q-297 633 -377 1300zM242 1894l90 33q16 -55 59 -81.5t92 -25.5t93.5 27.5t62.5 79.5l82 -24q-12 -90 -82 -135.5t-153 -45.5t-154.5 44t-89.5 128z" />
<glyph unicode="&#x462;" horiz-adv-x="1536" d="M123 -6v1665l719 -2v-522q139 2 258 -34t205 -105.5t134 -171t48 -226.5q0 -309 -215 -465q-94 -70 -235.5 -103.5t-301.5 -33.5l-2 1577h-383v-1555q-59 -31 -157 -30q-37 0 -70 6zM842 113q113 -4 211 30.5t169.5 100t112.5 157.5t41 203q0 109 -45 192t-119.5 138 t-171 81.5t-198.5 24.5v-927z" />
<glyph unicode="&#x463;" horiz-adv-x="1306" d="M96 1339v84h266l3 195q80 31 151 31q16 0 28.5 -1t35.5 -3v-222h268v-84h-268v-209q139 2 257.5 -33.5t204.5 -105t134.5 -171t48.5 -226.5q0 -309 -215 -465q-186 -137 -508 -137q-70 0 -140 6v1046h-149v84h149v211h-266zM580 109h28q104 0 201 38q305 127 305 453 q0 109 -45 191.5t-120 138t-171 82t-198 24.5v-927z" />
<glyph unicode="&#x472;" horiz-adv-x="1351" d="M82 819q0 166 47 326q61 209 195 348q158 164 352 164q195 0 352 -164q129 -135 195 -348q47 -160 47 -326q0 -178 -53 -344q-66 -203 -197 -334q-154 -156 -344 -155q-195 0 -344 155q-131 131 -197 334q-53 166 -53 344zM190 969q78 141 144 188q-33 -80 -33 -364 q0 -285 33 -365q-49 33 -123 154q53 -207 156 -338q129 -166 313 -166q162 0 287 143q104 121 155 291q43 143 43 307t-43 311q-51 170 -155 291q-127 141 -287 142q-213 0 -348 -199q-109 -159 -142 -395zM358 813q88 98 207 98q61 0 137 -34q74 -35 134 -35q74 0 165 59 l60 -65q-68 -84 -223 -84q-68 0 -144 32q-72 35 -129 35q-76 0 -157 -71z" />
<glyph unicode="&#x473;" horiz-adv-x="1351" d="M82 819q0 166 47 326q61 209 195 348q158 164 352 164q195 0 352 -164q129 -135 195 -348q47 -160 47 -326q0 -178 -53 -344q-66 -203 -197 -334q-154 -156 -344 -155q-195 0 -344 155q-131 131 -197 334q-53 166 -53 344zM190 969q78 141 144 188q-33 -80 -33 -364 q0 -285 33 -365q-49 33 -123 154q53 -207 156 -338q129 -166 313 -166q162 0 287 143q104 121 155 291q43 143 43 307t-43 311q-51 170 -155 291q-127 141 -287 142q-213 0 -348 -199q-109 -159 -142 -395zM358 813q88 98 207 98q61 0 137 -34q74 -35 134 -35q74 0 165 59 l60 -65q-68 -84 -223 -84q-68 0 -144 32q-72 35 -129 35q-76 0 -157 -71z" />
<glyph unicode="&#x490;" horiz-adv-x="729" d="M78 -4v1642l502 -2v191h108v-275h-373v-1534q-68 -29 -163 -28q-37 0 -74 6z" />
<glyph unicode="&#x491;" horiz-adv-x="729" d="M78 -4v1642l502 -2v191h108v-275h-373v-1534q-68 -29 -163 -28q-37 0 -74 6z" />
<glyph unicode="&#x2000;" horiz-adv-x="963" />
<glyph unicode="&#x2001;" horiz-adv-x="1927" />
<glyph unicode="&#x2002;" horiz-adv-x="963" />
<glyph unicode="&#x2003;" horiz-adv-x="1927" />
<glyph unicode="&#x2004;" horiz-adv-x="642" />
<glyph unicode="&#x2005;" horiz-adv-x="481" />
<glyph unicode="&#x2006;" horiz-adv-x="321" />
<glyph unicode="&#x2007;" horiz-adv-x="321" />
<glyph unicode="&#x2008;" horiz-adv-x="240" />
<glyph unicode="&#x2009;" horiz-adv-x="385" />
<glyph unicode="&#x200a;" horiz-adv-x="107" />
<glyph unicode="&#x2010;" horiz-adv-x="647" d="M123 334v84h401v-84h-401z" />
<glyph unicode="&#x2011;" horiz-adv-x="647" d="M123 334v84h401v-84h-401z" />
<glyph unicode="&#x2012;" horiz-adv-x="647" d="M123 334v84h401v-84h-401z" />
<glyph unicode="&#x2013;" horiz-adv-x="831" d="M123 334v84h586v-84h-586z" />
<glyph unicode="&#x2014;" horiz-adv-x="1032" d="M123 334v84h786v-84h-786z" />
<glyph unicode="&#x2018;" horiz-adv-x="567" d="M164 1372q0 86 47 164q53 84 135 102v-63q-23 -6 -53 -37q-31 -29 -31 -49v-143h123q14 0 18 -17v-47v-102q0 -58 -18 -58q-47 0 -88 27q-133 78 -133 223z" />
<glyph unicode="&#x2019;" horiz-adv-x="565" d="M164 1434v49v102q0 57 18 57q47 0 88 -26q131 -76 131 -234q0 -90 -45 -159q-53 -78 -135 -97v64q20 6 53 35q31 31 31 51v141h-123q-14 0 -18 17z" />
<glyph unicode="&#x201a;" horiz-adv-x="485" d="M123 16v54v90v51q2 14 18 14q47 0 88 -26q131 -76 131 -234q0 -90 -45 -160q-51 -74 -135 -96v64q23 6 53 37q31 27 31 49v141h-90h-33q-12 2 -15 4t-3 12z" />
<glyph unicode="&#x201c;" horiz-adv-x="847" d="M164 1372q0 86 47 164q53 84 135 102v-63q-23 -6 -53 -37q-31 -29 -31 -49v-143h123q14 0 18 -17v-47v-102q0 -58 -18 -58q-47 0 -88 27q-133 78 -133 223zM444 1372q0 86 48 164q53 84 135 102v-63q-23 -6 -54 -37q-31 -29 -30 -49v-143h123q14 0 18 -17v-47v-102 q0 -58 -18 -58q-47 0 -88 27q-133 78 -134 223z" />
<glyph unicode="&#x201d;" horiz-adv-x="845" d="M164 1434v53v90v51q2 14 18 14q47 0 88 -26q131 -76 131 -234q0 -90 -45 -159q-53 -78 -135 -97v64q64 16 84 86q-4 6 0 141h-123q-18 0 -18 17zM444 1434v49v102q0 57 19 57q47 0 88 -26q131 -76 131 -234q0 -90 -45 -159q-53 -78 -135 -97v64q20 6 53 35q31 31 31 51 v141h-123q-14 0 -19 17z" />
<glyph unicode="&#x201e;" horiz-adv-x="759" d="M123 16v54v90v51q2 14 18 14q47 0 88 -26q131 -76 131 -234q0 -90 -45 -160q-51 -74 -135 -96v64q23 6 53 37q31 27 31 49v141h-90h-33q-12 2 -15 4t-3 12zM395 16v54v90v51q2 14 19 14q47 0 88 -26q131 -76 131 -234q0 -90 -45 -160q-51 -74 -135 -96v64q23 6 53 37 q31 27 31 49v141h-91h-32q-12 2 -15.5 4t-3.5 12z" />
<glyph unicode="&#x2026;" horiz-adv-x="956" d="M123 84q0 37 24.5 62.5t61.5 25.5q35 0 60.5 -25.5t25.5 -60.5q0 -37 -24.5 -62.5t-61.5 -25.5q-35 0 -60.5 25.5t-25.5 60.5zM391 84q0 37 25.5 62.5t60.5 25.5t60.5 -25.5t25.5 -60.5q0 -37 -24.5 -62.5t-61.5 -25.5q-35 0 -60.5 25.5t-25.5 60.5zM662 84 q0 37 24.5 62.5t61.5 25.5q35 0 60.5 -25.5t25.5 -60.5q0 -37 -25 -62.5t-61 -25.5q-35 0 -60.5 24.5t-25.5 61.5z" />
<glyph unicode="&#x202f;" horiz-adv-x="385" />
<glyph unicode="&#x2039;" horiz-adv-x="634" d="M111 637q0 10 16 27q8 8 123 92l262 192v-96l-283 -213l283 -205v-100l-262 188q-25 16 -56.5 40t-70.5 52q-12 12 -12 23z" />
<glyph unicode="&#x203a;" horiz-adv-x="634" d="M123 334v96l283 213l-283 205v100l262 -188q25 -16 56.5 -40t70.5 -52q12 -12 12 -23q0 -12 -14 -24q-6 -4 -37 -29t-88 -66z" />
<glyph unicode="&#x205f;" horiz-adv-x="481" />
<glyph unicode="&#x2122;" horiz-adv-x="1130" d="M123 1315v61h391v-61h-131v-514h-127v514h-133zM588 801v575h129q80 0 121 -55q33 55 104 55h66v-575h-72v512q-16 0 -31.5 -11.5t-28 -28t-20.5 -35.5t-8 -38h-10q0 18 -12.5 39t-30 37t-39 26.5t-39.5 10.5v-512h-129z" />
<glyph unicode="&#x25fc;" horiz-adv-x="1638" d="M0 0v1638h1638v-1638h-1638z" />
</font>
</defs>
</svg>
